<mxfile host="app.diagrams.net" modified="2021-08-22T16:01:45.797Z" agent="5.0 (Windows NT 10.0; Win64; x64) AppleWebKit/537.36 (KHTML, like Gecko) Chrome/92.0.4515.159 Safari/537.36" etag="JxLyHCT48X0AV1vCVQcj" version="14.9.8" type="github">
  <diagram id="kgpKYQtTHZ0yAKxKKP6v" name="Page-1">
    <mxGraphModel dx="1038" dy="579" grid="1" gridSize="10" guides="1" tooltips="1" connect="1" arrows="1" fold="1" page="1" pageScale="1" pageWidth="850" pageHeight="1100" math="0" shadow="0">
      <root>
        <mxCell id="0" />
        <mxCell id="1" parent="0" />
        <mxCell id="Z9TkJOis8kWtVWv2Qnnk-1" value="Admin" style="shape=umlLifeline;perimeter=lifelinePerimeter;container=1;collapsible=0;recursiveResize=0;rounded=0;shadow=0;strokeWidth=1;" parent="1" vertex="1">
          <mxGeometry x="130" y="90" width="100" height="550" as="geometry" />
        </mxCell>
        <mxCell id="Z9TkJOis8kWtVWv2Qnnk-2" value="" style="points=[];perimeter=orthogonalPerimeter;rounded=0;shadow=0;strokeWidth=1;" parent="Z9TkJOis8kWtVWv2Qnnk-1" vertex="1">
          <mxGeometry x="45" y="70" width="10" height="40" as="geometry" />
        </mxCell>
        <mxCell id="Z9TkJOis8kWtVWv2Qnnk-3" value="Thiết bị/Giao diện" style="shape=umlLifeline;perimeter=lifelinePerimeter;container=1;collapsible=0;recursiveResize=0;rounded=0;shadow=0;strokeWidth=1;" parent="1" vertex="1">
          <mxGeometry x="310" y="90" width="100" height="550" as="geometry" />
        </mxCell>
        <mxCell id="Z9TkJOis8kWtVWv2Qnnk-4" value="" style="points=[];perimeter=orthogonalPerimeter;rounded=0;shadow=0;strokeWidth=1;" parent="Z9TkJOis8kWtVWv2Qnnk-3" vertex="1">
          <mxGeometry x="45" y="110" width="10" height="40" as="geometry" />
        </mxCell>
        <mxCell id="Z9TkJOis8kWtVWv2Qnnk-5" value="Nhấn vào bài báo cần sửa" style="verticalAlign=bottom;endArrow=block;shadow=0;strokeWidth=1;" parent="1" source="Z9TkJOis8kWtVWv2Qnnk-2" target="Z9TkJOis8kWtVWv2Qnnk-4" edge="1">
          <mxGeometry x="-0.0286" y="1" relative="1" as="geometry">
            <mxPoint x="285" y="170" as="sourcePoint" />
            <mxPoint x="350" y="200" as="targetPoint" />
            <Array as="points">
              <mxPoint x="290" y="200" />
              <mxPoint x="320" y="200" />
            </Array>
            <mxPoint as="offset" />
          </mxGeometry>
        </mxCell>
        <mxCell id="Z9TkJOis8kWtVWv2Qnnk-6" value="Hệ Thống" style="shape=umlLifeline;perimeter=lifelinePerimeter;container=1;collapsible=0;recursiveResize=0;rounded=0;shadow=0;strokeWidth=1;" parent="1" vertex="1">
          <mxGeometry x="480" y="90" width="100" height="550" as="geometry" />
        </mxCell>
        <mxCell id="Z9TkJOis8kWtVWv2Qnnk-7" value="" style="points=[];perimeter=orthogonalPerimeter;rounded=0;shadow=0;strokeWidth=1;" parent="Z9TkJOis8kWtVWv2Qnnk-6" vertex="1">
          <mxGeometry x="45" y="150" width="10" height="40" as="geometry" />
        </mxCell>
        <mxCell id="Z9TkJOis8kWtVWv2Qnnk-8" value="Yêu cầu hệ&amp;nbsp; thống" style="html=1;verticalAlign=bottom;endArrow=block;entryX=-0.1;entryY=0;entryDx=0;entryDy=0;entryPerimeter=0;exitX=0.5;exitY=1;exitDx=0;exitDy=0;exitPerimeter=0;" parent="1" source="Z9TkJOis8kWtVWv2Qnnk-4" target="Z9TkJOis8kWtVWv2Qnnk-7" edge="1">
          <mxGeometry x="0.0059" width="80" relative="1" as="geometry">
            <mxPoint x="355" y="250" as="sourcePoint" />
            <mxPoint x="520" y="250" as="targetPoint" />
            <mxPoint as="offset" />
          </mxGeometry>
        </mxCell>
        <mxCell id="Z9TkJOis8kWtVWv2Qnnk-9" value="Yêu cầu thành công" style="html=1;verticalAlign=bottom;endArrow=block;exitX=0.5;exitY=1;exitDx=0;exitDy=0;exitPerimeter=0;entryX=0.7;entryY=0;entryDx=0;entryDy=0;entryPerimeter=0;" parent="1" source="Z9TkJOis8kWtVWv2Qnnk-7" target="Z9TkJOis8kWtVWv2Qnnk-11" edge="1">
          <mxGeometry x="0.0588" width="80" relative="1" as="geometry">
            <mxPoint x="445" y="290" as="sourcePoint" />
            <mxPoint x="360" y="290" as="targetPoint" />
            <mxPoint as="offset" />
          </mxGeometry>
        </mxCell>
        <mxCell id="Z9TkJOis8kWtVWv2Qnnk-10" value="Hiển thị nội dung bài báo" style="html=1;verticalAlign=bottom;endArrow=block;exitX=0.5;exitY=1;exitDx=0;exitDy=0;exitPerimeter=0;" parent="1" source="Z9TkJOis8kWtVWv2Qnnk-11" edge="1">
          <mxGeometry width="80" relative="1" as="geometry">
            <mxPoint x="350" y="330" as="sourcePoint" />
            <mxPoint x="184" y="319" as="targetPoint" />
            <mxPoint as="offset" />
          </mxGeometry>
        </mxCell>
        <mxCell id="Z9TkJOis8kWtVWv2Qnnk-11" value="" style="points=[];perimeter=orthogonalPerimeter;rounded=0;shadow=0;strokeWidth=1;" parent="1" vertex="1">
          <mxGeometry x="355" y="280" width="10" height="40" as="geometry" />
        </mxCell>
        <mxCell id="Z9TkJOis8kWtVWv2Qnnk-12" value="" style="html=1;points=[];perimeter=orthogonalPerimeter;" parent="1" vertex="1">
          <mxGeometry x="525" y="400" width="10" height="40" as="geometry" />
        </mxCell>
        <mxCell id="Z9TkJOis8kWtVWv2Qnnk-13" value="" style="edgeStyle=orthogonalEdgeStyle;html=1;align=left;spacingLeft=2;endArrow=block;rounded=0;" parent="1" source="Z9TkJOis8kWtVWv2Qnnk-7" target="Z9TkJOis8kWtVWv2Qnnk-23" edge="1">
          <mxGeometry y="85" relative="1" as="geometry">
            <mxPoint x="535" y="290" as="sourcePoint" />
            <Array as="points">
              <mxPoint x="560" y="279" />
              <mxPoint x="560" y="520" />
            </Array>
            <mxPoint as="offset" />
            <mxPoint x="565" y="536" as="targetPoint" />
          </mxGeometry>
        </mxCell>
        <mxCell id="Z9TkJOis8kWtVWv2Qnnk-14" value="Yêu cầu thất bại" style="html=1;verticalAlign=bottom;endArrow=block;exitX=0.5;exitY=1;exitDx=0;exitDy=0;exitPerimeter=0;" parent="1" edge="1">
          <mxGeometry width="80" relative="1" as="geometry">
            <mxPoint x="535" y="559" as="sourcePoint" />
            <mxPoint x="365" y="559" as="targetPoint" />
            <mxPoint as="offset" />
          </mxGeometry>
        </mxCell>
        <mxCell id="Z9TkJOis8kWtVWv2Qnnk-15" value="" style="points=[];perimeter=orthogonalPerimeter;rounded=0;shadow=0;strokeWidth=1;" parent="1" vertex="1">
          <mxGeometry x="355" y="440" width="10" height="40" as="geometry" />
        </mxCell>
        <mxCell id="Z9TkJOis8kWtVWv2Qnnk-16" value="Hiển thị chỉnh sửa thành công&lt;br&gt;và reload lại trang" style="html=1;verticalAlign=bottom;endArrow=block;exitX=0.5;exitY=1;exitDx=0;exitDy=0;exitPerimeter=0;" parent="1" target="Z9TkJOis8kWtVWv2Qnnk-1" edge="1">
          <mxGeometry width="80" relative="1" as="geometry">
            <mxPoint x="355" y="449" as="sourcePoint" />
            <mxPoint x="185" y="449" as="targetPoint" />
            <mxPoint as="offset" />
          </mxGeometry>
        </mxCell>
        <mxCell id="Z9TkJOis8kWtVWv2Qnnk-17" value="Chỉnh sửa thông tin bài báo" style="text;align=center;fontStyle=1;verticalAlign=middle;spacingLeft=3;spacingRight=3;strokeColor=none;rotatable=0;points=[[0,0.5],[1,0.5]];portConstraint=eastwest;" parent="1" vertex="1">
          <mxGeometry x="320" y="60" width="80" height="26" as="geometry" />
        </mxCell>
        <mxCell id="Z9TkJOis8kWtVWv2Qnnk-18" value="" style="points=[];perimeter=orthogonalPerimeter;rounded=0;shadow=0;strokeWidth=1;" parent="1" vertex="1">
          <mxGeometry x="175" y="320" width="10" height="40" as="geometry" />
        </mxCell>
        <mxCell id="Z9TkJOis8kWtVWv2Qnnk-19" value="Nhập thông tin chỉnh sửa mới" style="html=1;verticalAlign=bottom;endArrow=block;exitX=0.5;exitY=1;exitDx=0;exitDy=0;exitPerimeter=0;" parent="1" target="Z9TkJOis8kWtVWv2Qnnk-20" edge="1">
          <mxGeometry x="0.0059" width="80" relative="1" as="geometry">
            <mxPoint x="185" y="360" as="sourcePoint" />
            <mxPoint x="349" y="360" as="targetPoint" />
            <mxPoint as="offset" />
          </mxGeometry>
        </mxCell>
        <mxCell id="Z9TkJOis8kWtVWv2Qnnk-20" value="" style="points=[];perimeter=orthogonalPerimeter;rounded=0;shadow=0;strokeWidth=1;" parent="1" vertex="1">
          <mxGeometry x="355" y="360" width="10" height="40" as="geometry" />
        </mxCell>
        <mxCell id="Z9TkJOis8kWtVWv2Qnnk-21" value="Yêu cầu hệ&amp;nbsp; thống" style="html=1;verticalAlign=bottom;endArrow=block;entryX=-0.1;entryY=0;entryDx=0;entryDy=0;entryPerimeter=0;exitX=0.5;exitY=1;exitDx=0;exitDy=0;exitPerimeter=0;" parent="1" edge="1">
          <mxGeometry x="0.0059" width="80" relative="1" as="geometry">
            <mxPoint x="365" y="400" as="sourcePoint" />
            <mxPoint x="529" y="400" as="targetPoint" />
            <mxPoint as="offset" />
          </mxGeometry>
        </mxCell>
        <mxCell id="Z9TkJOis8kWtVWv2Qnnk-22" value="Yêu cầu thành công" style="html=1;verticalAlign=bottom;endArrow=block;exitX=0.5;exitY=1;exitDx=0;exitDy=0;exitPerimeter=0;entryX=0.7;entryY=0;entryDx=0;entryDy=0;entryPerimeter=0;" parent="1" edge="1">
          <mxGeometry x="0.0588" width="80" relative="1" as="geometry">
            <mxPoint x="533" y="440" as="sourcePoint" />
            <mxPoint x="365" y="440" as="targetPoint" />
            <mxPoint as="offset" />
          </mxGeometry>
        </mxCell>
        <mxCell id="Z9TkJOis8kWtVWv2Qnnk-23" value="" style="html=1;points=[];perimeter=orthogonalPerimeter;" parent="1" vertex="1">
          <mxGeometry x="525" y="520" width="10" height="40" as="geometry" />
        </mxCell>
        <mxCell id="Z9TkJOis8kWtVWv2Qnnk-24" value="" style="points=[];perimeter=orthogonalPerimeter;rounded=0;shadow=0;strokeWidth=1;" parent="1" vertex="1">
          <mxGeometry x="355" y="560" width="10" height="40" as="geometry" />
        </mxCell>
        <mxCell id="Z9TkJOis8kWtVWv2Qnnk-25" value="Hiển thị yêu cầu thất bại&lt;br&gt;và reload lại trang trước đó" style="html=1;verticalAlign=bottom;endArrow=block;exitX=0.5;exitY=1;exitDx=0;exitDy=0;exitPerimeter=0;" parent="1" target="Z9TkJOis8kWtVWv2Qnnk-1" edge="1">
          <mxGeometry width="80" relative="1" as="geometry">
            <mxPoint x="355" y="600" as="sourcePoint" />
            <mxPoint x="185" y="600" as="targetPoint" />
            <mxPoint as="offset" />
          </mxGeometry>
        </mxCell>
      </root>
    </mxGraphModel>
  </diagram>
</mxfile>
